<svg width="37" height="42" viewBox="0 0 37 42" fill="none" xmlns="http://www.w3.org/2000/svg">
<path d="M14.3887 16.5C13.5637 16.5 12.8887 17.175 12.8887 18C12.8887 18.825 13.5637 19.5 14.3887 19.5C15.2137 19.5 15.8887 18.825 15.8887 18C15.8887 17.175 15.2137 16.5 14.3887 16.5ZM23.3887 16.5C22.5637 16.5 21.8887 17.175 21.8887 18C21.8887 18.825 22.5637 19.5 23.3887 19.5C24.2137 19.5 24.8887 18.825 24.8887 18C24.8887 17.175 24.2137 16.5 23.3887 16.5ZM18.8887 16.5C18.0637 16.5 17.3887 17.175 17.3887 18C17.3887 18.825 18.0637 19.5 18.8887 19.5C19.7137 19.5 20.3887 18.825 20.3887 18C20.3887 17.175 19.7137 16.5 18.8887 16.5Z" fill="#121212"/>
</svg>
