<svg width="26" height="25" viewBox="0 0 26 25" fill="none" xmlns="http://www.w3.org/2000/svg">
<path d="M14.3608 10.4024C12.8895 9.35361 11.3394 9.96541 10.7482 10.4024L8.90906 8.0299C8.48869 7.43058 8.90906 6.36513 9.1718 5.90732L11.3886 1.02819C11.5733 0.62164 11.803 0.185135 12.2284 0.049383C12.3784 0.00152661 12.5236 -0.00868498 12.6596 0.00653552C13.2382 0.0713124 13.4622 0.730021 13.5008 1.311C16.5963 1.16117 19.8529 3.04397 21.4451 4.5573C24.1929 7.16891 25.0937 11.0713 25.0861 13.3063C25.0849 13.656 24.7908 13.9216 24.4411 13.9216C24.0853 13.9216 23.7917 13.648 23.7574 13.2939C23.5788 11.4545 22.9915 7.91572 20.5256 5.68102C17.7012 3.12144 15.2258 2.73126 13.6503 2.68444L14.3608 10.4024Z" fill="white"/>
<path d="M14.0324 15.8337C15.5562 15.1846 15.8934 13.5238 15.8715 12.7745L17.1465 12.7279C18.569 12.6759 20.1117 12.7953 20.9291 13.9606L23.5366 17.3789C24.305 18.3863 24.5529 20.4416 23.3594 20.0162L22.9559 19.8353C21.9925 21.2768 18.8047 24.3597 14.2856 24.9091C12.1234 25.1719 8.92359 24.9231 6.19289 23.3863C5.85804 23.1978 5.61289 23.0058 5.64646 22.623C5.72988 21.6719 7.11815 22.0393 7.97374 22.4631C9.46035 23.1996 11.8557 23.8244 14.7454 23.3484C16.0591 23.1951 19.2644 22.1543 21.5765 19.2167L14.0324 15.8337Z" fill="white"/>
<path d="M9.23746 12.7745C9.17178 13.4613 9.44765 15.0348 11.0766 15.8337L10.0913 17.9561C9.93809 18.3306 9.40824 19.1297 8.51495 19.3295L2.9973 19.8355C1.70757 19.9538 -0.202672 19.3171 0.764293 18.4555L1.21462 18.1536C-0.519419 15.3462 0.0104273 11.4573 0.492106 9.86374C1.4905 5.76842 5.11185 3.24629 6.79772 2.49715C7.95375 2.69692 7.71729 3.32953 7.45456 3.62087C5.30014 4.56978 3.36029 7.09607 2.65966 8.24059C0.662883 12.286 1.65251 16.0064 2.39693 17.3609L9.23746 12.7745Z" fill="white"/>
<path d="M20.6875 8.6593C19.5842 6.76674 17.6078 5.54412 16.2477 4.90863C15.7014 4.65334 14.8663 4.36279 14.482 4.8275C13.9145 5.51372 15.1981 6.00568 16.0028 6.387C17.4023 7.05016 18.3565 7.97644 18.9463 8.79307C19.4375 9.47312 20.4681 10.3715 20.8323 9.61578C20.9794 9.31032 20.8583 8.95223 20.6875 8.6593Z" fill="white"/>
<path d="M12.4599 21.9033C15.0614 21.8016 17.1294 20.8798 18.1733 20.0704C18.49 19.8248 18.8085 19.3404 18.6203 18.9867C18.2998 18.3843 17.5468 18.7696 16.9553 19.1098C15.6386 19.8669 14.3383 20.2088 13.3173 20.3335C12.3047 20.4572 10.8134 21.1492 11.6413 21.7451C11.892 21.9255 12.1383 21.9159 12.4449 21.9038L12.4599 21.9033Z" fill="white"/>
<path d="M4.49877 14.4835C4.04778 12.6874 4.66042 10.7032 5.26346 9.43441C5.54643 8.83904 5.84337 7.81017 5.18895 7.731C4.6519 7.66602 4.33124 8.09278 4.09955 8.58162C3.85913 9.08888 3.57124 9.79051 3.25078 10.6129C2.92238 11.4556 2.86763 12.5374 2.91017 13.4283C2.95176 14.2992 3.03775 15.5414 3.90762 15.4823C4.64327 15.4324 4.60824 14.7956 4.49877 14.4835Z" fill="white"/>
<path d="M13.9465 14.439C14.7542 13.6485 14.7639 12.3515 13.9681 11.549C13.1712 10.7454 11.8721 10.7454 11.0752 11.549C10.2794 12.3515 10.2891 13.6485 11.0968 14.439C11.8886 15.2141 13.1547 15.2141 13.9465 14.439Z" fill="white"/>
</svg>
