<svg width="20" height="20" viewBox="0 0 20 20" fill="none" xmlns="http://www.w3.org/2000/svg">
<path d="M6.16997 2.81528L3.46341 0.166742C4.07851 -0.0796339 6.47756 -0.202822 7.6463 0.90587C8.33322 1.55749 8.75231 2.42632 8.96699 3.05317C9.09315 3.42151 9.13146 3.81124 9.14912 4.20019C9.17242 4.71344 9.1376 5.25539 9.38984 5.70298C9.53756 5.96509 9.73144 6.19666 9.86075 6.32614C9.41786 6.81889 9.47117 7.55802 9.55319 7.86599C9.70082 8.95004 10.845 9.17999 11.3986 9.15946C11.2509 10.687 12.4853 11.151 13.1209 11.1921C12.9733 12.6703 14.0436 13.122 14.5972 13.1631C14.4004 14.0993 15.0483 14.744 15.3969 14.9493C16.4795 15.7377 17.4883 14.8672 17.8574 14.3334C18.206 14.6413 19.0138 15.3805 19.4567 15.8732C19.8996 16.366 19.9283 17.023 19.8873 17.2899C19.8873 18.029 19.3952 18.6244 19.1492 18.8297C18.1157 19.4703 17.0782 19.0966 16.6887 18.8297L11.3986 13.4094C11.532 13.2425 11.6357 13.0808 11.7139 12.9247C12.5848 11.1853 9.74849 10.3486 7.83084 10.0218C7.09269 9.03627 6.17 8.54352 5.80092 8.42034C3.12433 8.47617 0.367598 6.32916 0.721829 3.67552C0.768324 3.32721 0.852174 3.03076 0.941398 2.81528L3.64795 5.46382C5.56715 4.97107 6.12896 3.49282 6.16997 2.81528Z" fill="white"/>
<path d="M5.06277 16.058L6.84663 17.2283C6.92865 16.6739 7.10499 15.3312 7.1542 14.3949C7.21377 13.2616 8.59118 13.0879 9.72216 13.1823L10.2298 13.2247C10.3939 13.2247 10.7834 13.0768 11.0295 12.4855C11.385 11.6313 10.0726 11.2346 9.16096 11.0764L5.92395 10.5145C5.28421 10.5638 5.00126 11.1099 4.93974 11.3768C4.81672 12.5266 4.57067 14.9123 4.57067 15.2573C4.57067 15.6022 4.89874 15.9348 5.06277 16.058Z" fill="white"/>
<path d="M11.7061 14.9493C11.1648 14.4073 10.4144 14.1486 10.1068 14.087C8.90197 14.0116 7.9425 14.7039 7.81645 15.9045C7.74291 16.6049 7.6821 17.3423 7.6463 17.8442L10.968 20C11.4601 19.0761 12.1367 18.5833 12.9364 18.2754C13.5761 18.029 14.0231 17.6389 14.1666 17.4746C13.572 16.8587 12.2474 15.4913 11.7061 14.9493Z" fill="white"/>
<path d="M11.7563 8.25359C12.0385 8.02758 12.4015 7.52078 12.7179 7.02112C13.124 6.37985 13.5734 5.51901 13.0481 4.97107C12.5576 4.45941 11.7342 4.97609 11.3359 5.56238C11.0204 6.02689 10.6975 6.58891 10.4646 6.89853C9.96411 7.56382 10.8585 8.72264 11.6038 8.35175C11.6552 8.32617 11.7062 8.29376 11.7563 8.25359Z" fill="white"/>
<path d="M13.6017 10.2246C13.8839 9.99858 14.2469 9.49179 14.5633 8.99213C14.9694 8.35086 15.4187 7.49002 14.8935 6.94208C14.403 6.43042 13.5796 6.9471 13.1813 7.53339C12.8658 7.9979 12.5429 8.55992 12.31 8.86953C11.8095 9.53483 12.7039 10.6937 13.4492 10.3228C13.5006 10.2972 13.5516 10.2648 13.6017 10.2246Z" fill="white"/>
<path d="M15.3241 12.2572C15.5949 12.0403 15.9029 11.6021 16.1764 11.156C16.5732 10.5089 17.0181 9.64581 16.4928 9.09787C16.0024 8.58621 15.1768 9.10232 14.7935 9.69851C14.5244 10.117 14.2539 10.6075 14.0323 10.9021C13.5318 11.5674 14.4262 12.7263 15.1715 12.3554C15.2229 12.3298 15.2739 12.2974 15.3241 12.2572Z" fill="white"/>
<path d="M16.9234 14.3334C17.1707 14.1353 17.418 13.8148 17.6418 13.4721C18.0569 12.8366 18.4944 11.9683 17.9691 11.4204C17.4787 10.9087 16.6443 11.4137 16.2593 12.0088C16.045 12.34 15.8317 12.7124 15.6316 12.9783C15.1312 13.6436 16.0255 14.8024 16.7709 14.4315C16.8223 14.4059 16.8733 14.3735 16.9234 14.3334Z" fill="white"/>
</svg>
