<svg width="23" height="21" viewBox="0 0 23 21" fill="none" xmlns="http://www.w3.org/2000/svg">
<path d="M13.5879 10.3741C12.1961 9.32817 10.7298 9.93831 10.1706 10.3741L8.43089 8.00806C8.03325 7.41037 8.43089 6.34782 8.67942 5.89125L10.7749 1.0287C10.9506 0.620948 11.3142 0.0619752 11.7548 0.0070514C12.5635 -0.0937588 12.7562 0.849543 12.8271 1.66141L13.5879 10.3741Z" fill="white"/>
<path d="M13.2772 15.7906C14.7187 15.1433 15.0376 13.487 15.0169 12.7397L16.1786 12.695C17.5532 12.642 19.0391 12.7773 19.8011 13.9227L22.2794 17.348C23.0013 18.3457 23.2528 20.395 22.1 19.9618L13.2772 15.7906Z" fill="white"/>
<path d="M10.4812 15.7906C8.94036 14.9939 8.67941 13.4247 8.74154 12.7397L0.726463 18.4053C-0.196357 19.2722 1.64355 19.8971 2.90382 19.7753L8.05808 19.2769C8.90308 19.0777 9.40428 18.2808 9.54926 17.9072L10.4812 15.7906Z" fill="white"/>
<path d="M10.4281 14.3252C11.2051 15.127 12.4913 15.127 13.2682 14.3252C14.0035 13.5665 14.0124 12.3639 13.2886 11.5943C12.5078 10.7641 11.1886 10.7641 10.4077 11.5943C9.68393 12.3639 9.69289 13.5665 10.4281 14.3252Z" fill="white"/>
</svg>
